<?xml version="1.0" encoding="UTF-8" standalone="no"?>
<svg xmlns="http://www.w3.org/2000/svg" viewBox="0 0 421 107" width="421" height="107" role="img" aria-label="CockpitJourney">
  <title>CockpitJourney</title>
  <g transform="translate(6, 66.734375)">
    <path fill="#1A1D17" d="M19.89-36.61Q21.53-36.61 23.33-37.19Q25.14-37.77 26.92-38.78Q28.70-39.79 30.31-41.19Q31.93-42.58 33.15-44.24Q34.38-45.89 35.11-47.72Q35.84-49.54 35.84-51.39Q35.84-52.16 35.56-53.02Q35.28-53.88 34.65-54.61Q34.03-55.34 33-55.84Q31.97-56.33 30.46-56.33Q27.54-56.33 24.90-54.96Q22.26-53.58 19.98-51.22Q17.70-48.86 15.83-45.70Q13.96-42.54 12.65-38.97Q11.34-35.41 10.63-31.62Q9.93-27.84 9.93-24.28Q9.93-20.20 10.66-16.35Q11.39-12.50 13-9.54Q14.61-6.57 17.23-4.79Q19.85-3.01 23.68-3.01Q26.47-3.01 28.70-3.82Q30.94-4.64 32.53-5.61Q34.12-6.57 34.98-7.41Q35.84-8.25 35.92-8.29Q36.48-9.24 37.19-9.41Q37.90-9.58 38.56-9.24Q39.23-8.89 39.79-8.19Q40.35-7.48 40.67-6.66Q40.99-5.84 40.95-5.03Q40.91-4.21 40.39-3.70Q40.30-3.61 39.75-3.05Q39.19-2.49 38.16-1.68Q37.13-0.86 35.62 0.06Q34.12 0.99 32.23 1.78Q30.34 2.58 28.04 3.09Q25.74 3.61 23.07 3.61Q18.35 3.61 14.61 1.63Q10.87-0.34 8.27-3.97Q5.67-7.61 4.30-12.76Q2.92-17.92 2.92-24.28Q2.92-28.57 3.82-33.09Q4.73-37.60 6.47-41.87Q8.21-46.15 10.70-49.95Q13.19-53.75 16.37-56.59Q19.55-59.43 23.38-61.08Q27.20-62.73 31.58-62.73Q33.95-62.73 36.01-62Q38.07-61.27 39.55-59.81Q41.04-58.35 41.89-56.18Q42.75-54.01 42.75-51.13Q42.75-48.43 41.70-45.85Q40.65-43.27 38.89-40.97Q37.13-38.67 34.78-36.74Q32.44-34.80 29.84-33.41Q27.24-32.01 24.58-31.24Q21.91-30.46 19.46-30.46Q17.83-30.46 16.69-31.47Q15.55-32.48 15.55-34.68Q15.55-35.15 15.62-35.64Q15.68-36.14 15.81-36.54Q15.94-36.95 16.13-37.21Q16.33-37.47 16.54-37.47Q16.76-37.47 16.95-37.34Q17.14-37.21 17.47-37.04Q17.79-36.87 18.35-36.74Q18.91-36.61 19.89-36.61M78.20-14.52Q78.29-15.04 78.78-15.38Q79.28-15.73 79.92-15.86Q80.57-15.98 81.28-15.86Q81.98-15.73 82.52-15.28Q83.06-14.82 83.29-14.03Q83.53-13.23 83.23-11.99Q82.84-10.18 81.96-8.62Q81.08-7.05 79.75-5.84Q78.42-4.64 76.61-3.95Q74.81-3.27 72.57-3.27Q71.37-3.27 70.32-3.39Q69.27-3.52 68.28-3.87Q66.64-1.03 64.07 0.71Q61.49 2.45 57.71 2.45Q54.36 2.45 51.95 1.14Q49.54-0.17 47.95-2.43Q46.36-4.68 45.61-7.65Q44.86-10.61 44.86-13.92Q44.86-18.78 46-22.62Q47.14-26.47 48.64-29.15Q50.14-31.84 51.63-33.26Q53.11-34.68 53.84-34.68Q54.70-34.68 55.41-33.92Q56.12-33.17 56.44-32.16Q56.76-31.15 56.61-30.12Q56.46-29.09 55.60-28.53Q55.09-27.71 54.38-26.64Q53.67-25.57 53.04-23.96Q52.42-22.34 51.99-20.02Q51.56-17.70 51.56-14.44Q51.56-11.64 52.06-9.58Q52.55-7.52 53.43-6.12Q54.31-4.73 55.45-4.04Q56.59-3.35 57.88-3.35Q59.77-3.35 60.99-4.28Q62.22-5.20 63.08-6.70Q59.98-9.37 58.37-13.47Q56.76-17.57 56.76-22.34Q56.76-24.41 57.21-26.28Q57.66-28.14 58.54-29.56Q59.43-30.98 60.76-31.82Q62.09-32.66 63.85-32.66Q65.40-32.66 66.77-31.54Q68.15-30.42 69.18-28.45Q70.21-26.47 70.79-23.76Q71.37-21.05 71.37-17.87Q71.37-15.43 71.07-13.02Q70.77-10.61 70.13-8.38Q70.60-8.21 71.01-8.19Q71.41-8.16 71.89-8.16Q73.30-8.16 74.40-8.68Q75.50-9.20 76.27-10.05Q77.04-10.91 77.52-12.07Q77.99-13.23 78.20-14.52M61.40-22.69Q61.40-19.72 62.33-17.06Q63.25-14.39 64.75-12.42Q65.01-14.52 65.01-16.46Q65.01-18.69 64.95-20.60Q64.88-22.52 64.65-23.89Q64.41-25.27 64-26.06Q63.59-26.86 62.91-26.86Q61.40-26.86 61.40-22.69M92.30 2.45Q89.38 2.45 86.63 1.38Q83.88 0.30 81.75-1.80Q79.62-3.91 78.35-7Q77.09-10.10 77.09-14.18Q77.09-17.96 78.16-21.61Q79.23-25.27 81.13-28.12Q83.02-30.98 85.66-32.74Q88.30-34.50 91.44-34.50Q93.71-34.50 95.30-33.58Q96.89-32.66 97.88-31.35Q98.87-30.04 99.32-28.53Q99.77-27.03 99.77-25.87Q99.77-25.01 99.32-24.32Q98.87-23.63 98.23-23.16Q97.58-22.69 96.81-22.45Q96.04-22.21 95.43-22.26Q94.83-22.30 94.47-22.69Q94.10-23.07 94.23-23.85Q94.06-24.41 93.91-25.22Q93.76-26.04 93.39-26.79Q93.03-27.54 92.38-28.08Q91.74-28.62 90.62-28.62Q89.42-28.62 88.28-27.48Q87.14-26.34 86.26-24.36Q85.38-22.39 84.84-19.77Q84.30-17.14 84.30-14.18Q84.30-11.56 84.97-9.54Q85.64-7.52 86.84-6.14Q88.04-4.77 89.70-4.06Q91.35-3.35 93.29-3.35Q95.86-3.35 97.78-4.32Q99.69-5.29 101.02-6.87Q102.35-8.46 103.17-10.44Q103.98-12.42 104.37-14.44Q104.67-15.90 105.60-16.39Q106.52-16.89 107.49-16.63Q108.45-16.37 109.16-15.53Q109.87-14.70 109.74-13.54Q109.57-12.20 109.12-10.48Q108.67-8.77 107.81-7Q106.95-5.24 105.64-3.54Q104.33-1.85 102.44-0.52Q100.55 0.82 98.03 1.63Q95.52 2.45 92.30 2.45M104.37-1.42L104.37-54.23Q104.37-55.17 104.22-55.73Q104.07-56.29 103.92-56.61Q103.77-56.93 103.62-57.13Q103.47-57.32 103.47-57.54Q103.47-57.79 103.73-57.96Q103.98-58.14 104.41-58.27Q104.84-58.39 105.34-58.46Q105.83-58.52 106.30-58.52Q108.50-58.52 109.76-57.38Q111.03-56.25 111.03-54.66L111.03-27.20Q112.11-28.66 113.29-29.97Q114.47-31.28 115.76-32.29Q117.05-33.30 118.44-33.90Q119.84-34.50 121.34-34.50Q123.41-34.50 124.87-33.71Q126.33-32.91 127.29-31.58Q128.26-30.25 128.71-28.55Q129.16-26.86 129.16-25.01Q129.16-22.47 128.35-20.26Q127.53-18.05 126.29-16.24Q125.04-14.44 123.56-13.02Q122.07-11.60 120.74-10.66Q121.04-9.24 121.58-7.93Q122.12-6.62 122.89-5.59Q123.66-4.55 124.67-3.95Q125.68-3.35 126.97-3.35Q128.48-3.35 129.79-4.28Q131.10-5.20 132.11-6.60Q133.12-7.99 133.80-9.65Q134.49-11.30 134.79-12.76Q135.05-14.09 135.59-14.70Q136.13-15.30 136.75-15.36Q137.37-15.43 138.02-15.04Q138.66-14.65 139.13-14.03Q139.61-13.41 139.84-12.63Q140.08-11.86 139.91-11.17Q139.30-9.41 138.19-7.05Q137.07-4.68 135.35-2.58Q133.63-0.47 131.31 0.99Q128.99 2.45 125.98 2.45Q123.41 2.45 121.28 1.12Q119.15-0.21 117.63-2.23Q116.10-4.25 115.29-6.66Q114.47-9.07 114.47-11.26Q114.47-11.95 115.07-12.65Q115.67-13.36 116.60-14.20Q117.52-15.04 118.57-16.07Q119.63-17.10 120.55-18.39Q121.47-19.68 122.07-21.29Q122.68-22.90 122.68-24.92Q122.68-26.55 121.88-27.59Q121.09-28.62 119.84-28.62Q119.07-28.62 117.97-28.04Q116.88-27.46 115.67-26.04Q114.47-24.62 113.27-22.28Q112.06-19.94 111.03-16.46L111.03-1.33Q111.03-0.69 111.01-0.02Q110.99 0.64 110.75 1.18Q110.52 1.72 110.02 2.08Q109.53 2.45 108.58 2.45Q107.94 2.45 107.19 2.30Q106.43 2.15 105.81 1.74Q105.19 1.33 104.78 0.58Q104.37-0.17 104.37-1.42M146.09 3.35Q144.46 3.35 143.43 2.99Q142.40 2.62 141.84 2.02L141.84 30.64Q141.84 31.84 141.37 32.59Q140.89 33.34 140.19 33.77Q139.48 34.20 138.66 34.35Q137.84 34.50 137.20 34.50Q135.87 34.50 135.52 33.82Q135.18 33.13 135.18 32.14L135.18-29.30Q135.18-30.25 135.03-30.81Q134.88-31.37 134.73-31.69Q134.58-32.01 134.43-32.21Q134.28-32.40 134.28-32.66Q134.28-32.87 134.54-33.04Q134.79-33.21 135.22-33.34Q135.65-33.47 136.15-33.54Q136.64-33.60 137.11-33.60Q139.22-33.60 140.49-32.46Q141.75-31.32 141.84-29.82Q143.21-31.84 145.15-33.17Q147.08-34.50 149.88-34.50Q152.45-34.50 154.37-33.30Q156.28-32.10 157.54-30.01Q158.81-27.93 159.44-25.09Q160.06-22.26 160.06-18.99Q160.06-15.30 159.41-11.92Q158.77-8.55 157.78-6.14Q159.97-6.27 161.39-6.75Q162.81-7.22 163.78-8.06Q164.74-8.89 165.45-10.10Q166.16-11.30 166.93-12.85Q167.54-14.09 167.94-14.65Q168.35-15.21 168.95-15.21Q169.51-15.21 170.09-14.87Q170.67-14.52 171.12-14.01Q171.57-13.49 171.85-12.91Q172.13-12.33 172.13-11.86Q172.13-10.36 171.10-8.42Q170.07-6.49 167.94-4.77Q165.82-3.05 162.57-1.87Q159.33-0.69 154.95-0.69Q153.14 1.25 150.78 2.30Q148.41 3.35 146.09 3.35M147.64-28.62Q146.70-28.62 145.81-28.06Q144.93-27.50 144.16-26.53Q143.39-25.57 142.81-24.19Q142.23-22.82 141.84-21.23L141.84-2.19Q142.79-3.57 144.93-4.30Q147.08-5.03 150.13-5.29Q150.91-6.45 151.49-8.06Q152.07-9.67 152.45-11.39Q152.84-13.11 153.03-14.74Q153.23-16.37 153.23-17.62Q153.23-20.62 152.78-22.73Q152.32-24.84 151.55-26.15Q150.78-27.46 149.77-28.04Q148.76-28.62 147.64-28.62M171.57-42.32Q170.50-42.32 169.53-42.75Q168.57-43.18 167.86-43.91Q167.15-44.64 166.72-45.61Q166.29-46.58 166.29-47.70Q166.29-48.86 166.72-49.84Q167.15-50.83 167.86-51.54Q168.57-52.25 169.53-52.66Q170.50-53.07 171.57-53.07Q172.73-53.07 173.72-52.66Q174.71-52.25 175.42-51.54Q176.13-50.83 176.54-49.84Q176.95-48.86 176.95-47.70Q176.95-46.58 176.54-45.61Q176.13-44.64 175.42-43.91Q174.71-43.18 173.72-42.75Q172.73-42.32 171.57-42.32M173.59-29.73L173.59-7.39Q173.59-7.09 173.64-6.42Q173.68-5.76 173.89-5.07Q174.11-4.38 174.58-3.87Q175.05-3.35 175.91-3.35Q177.20-3.35 178.17-4.30Q179.14-5.24 179.85-6.66Q180.55-8.08 181.03-9.73Q181.50-11.39 181.80-12.85Q182.06-14.18 182.60-14.78Q183.13-15.38 183.76-15.45Q184.38-15.51 185-15.12Q185.63-14.74 186.12-14.12Q186.61-13.49 186.85-12.72Q187.09-11.95 186.91-11.26Q186.31-9.07 185.35-6.66Q184.38-4.25 182.88-2.23Q181.37-0.21 179.27 1.12Q177.16 2.45 174.32 2.45Q172.56 2.45 171.19 1.78Q169.81 1.12 168.87 0Q167.92-1.12 167.43-2.62Q166.93-4.12 166.93-5.80L166.93-29.30Q166.93-30.55 166.74-31.11Q166.55-31.67 166.55-32.14Q166.55-32.79 167.23-33.19Q167.92-33.60 168.87-33.60Q171.06-33.60 172.33-32.46Q173.59-31.32 173.59-29.73M174.20-41.38Q175.18-41.29 176.39-41.25Q177.42-41.16 178.88-41.14Q180.34-41.12 182.14-41.08L182.14-55.99Q182.14-56.93 181.99-57.49Q181.84-58.05 181.69-58.37Q181.54-58.70 181.39-58.89Q181.24-59.08 181.24-59.30Q181.24-59.55 181.50-59.73Q181.76-59.90 182.19-60.03Q182.62-60.16 183.11-60.22Q183.61-60.29 184.08-60.29Q186.27-60.29 187.54-59.15Q188.80-58.01 188.80-56.42L188.80-40.99Q192.84-40.99 197.33-41.08Q201.82-41.16 206.34-41.38Q206.94-42.02 207.30-41.85Q207.67-41.68 207.78-41.04Q207.88-40.39 207.80-39.45Q207.71-38.50 207.45-37.62Q207.20-36.74 206.74-36.09Q206.29-35.45 205.73-35.45Q200.45-35.32 196.39-35.30Q192.33-35.28 188.80-35.28L188.80-7.39Q188.80-5.24 189.62-4.30Q190.44-3.35 191.81-3.35Q193.14-3.35 194.11-4.30Q195.08-5.24 195.79-6.66Q196.50-8.08 196.95-9.73Q197.40-11.39 197.70-12.85Q197.96-14.22 198.56-14.85Q199.16-15.47 199.80-15.47Q200.32-15.47 200.88-15.15Q201.44-14.82 201.89-14.31Q202.34-13.79 202.62-13.15Q202.90-12.50 202.90-11.86Q202.90-11.77 202.90-11.64Q202.90-11.52 202.81-11.26Q202.25-9.07 201.29-6.66Q200.32-4.25 198.79-2.23Q197.27-0.21 195.16 1.12Q193.06 2.45 190.22 2.45Q188.46 2.45 186.98 1.91Q185.50 1.38 184.42 0.19Q183.35-0.99 182.75-2.84Q182.14-4.68 182.14-7.30L182.14-35.28Q180.68-35.28 179.54-35.30Q178.41-35.32 177.63-35.36Q176.73-35.41 176.04-35.45Q175.01-35.45 174.22-36.37Q173.42-37.30 173.10-38.41Q172.78-39.53 173.01-40.46Q173.25-41.38 174.20-41.38"/>
    <path fill="#6E8B58" d="M215.98 3.70L215.98-54.74Q213.02-54.36 210.37-53.07Q207.73-51.78 205.78-49.54Q203.82-47.31 202.68-44.13Q201.54-40.95 201.54-36.78Q201.54-34.12 202.10-31.99Q202.66-29.86 203.43-28.38Q204.21-26.90 204.98-26.08Q205.75-25.27 206.18-25.27Q206.53-25.27 206.68-25.57Q206.83-25.87 207.17-25.87Q207.52-25.87 207.64-25.44Q207.77-25.01 207.77-24.54Q207.77-23.42 207.41-22.37Q207.04-21.31 206.44-20.52Q205.84-19.72 205.07-19.23Q204.29-18.73 203.48-18.73Q202.57-18.73 201.97-19.29Q201.16-19.81 199.89-21.16Q198.62-22.52 197.44-24.69Q196.26-26.86 195.42-29.88Q194.58-32.91 194.58-36.78Q194.58-41.42 195.70-45.10Q196.82-48.77 198.69-51.52Q200.55-54.27 203.05-56.20Q205.54-58.14 208.29-59.34Q211.04-60.54 213.88-61.08Q216.71-61.62 219.29-61.62Q219.98-61.62 220.62-61.34Q221.27-61.06 221.74-60.56Q222.21-60.07 222.51-59.38Q222.81-58.70 222.81-57.92L222.81 0.43L222.81 3.09Q224.06 2.88 225.24 2.79Q226.42 2.71 227.50 2.62Q229.04 2.54 229.49 3.59Q229.95 4.64 229.62 5.97Q229.30 7.30 228.40 8.42Q227.50 9.54 226.34 9.58Q225.35 9.58 224.47 9.63Q223.59 9.67 222.73 9.75Q222.51 13.58 221.91 17.38Q221.31 21.18 219.89 24.26Q218.47 27.33 216.04 29.24Q213.62 31.15 209.79 31.15Q207.56 31.15 205.73 30.36Q203.91 29.56 202.62 28.17Q201.33 26.77 200.64 24.88Q199.95 22.99 199.95 20.75Q199.95 17.40 201.31 14.82Q202.66 12.25 204.92 10.27Q207.17 8.29 210.05 6.94Q212.93 5.59 215.98 4.68L215.98 3.70M209.96 24.36Q211.43 24.36 212.46 23.29Q213.49 22.21 214.18 20.39Q214.86 18.56 215.23 16.18Q215.59 13.79 215.77 11.17Q211.38 12.50 209.11 14.89Q206.83 17.27 206.83 20.58Q206.83 22.60 207.73 23.48Q208.63 24.36 209.96 24.36M263.55-14.52Q263.63-15.04 264.13-15.38Q264.62-15.73 265.27-15.86Q265.91-15.98 266.62-15.86Q267.33-15.73 267.87-15.28Q268.40-14.82 268.64-14.03Q268.88-13.23 268.57-11.99Q268.19-10.18 267.31-8.62Q266.43-7.05 265.09-5.84Q263.76-4.64 261.96-3.95Q260.15-3.27 257.92-3.27Q256.71-3.27 255.66-3.39Q254.61-3.52 253.62-3.87Q251.99-1.03 249.41 0.71Q246.83 2.45 243.05 2.45Q239.70 2.45 237.29 1.14Q234.89-0.17 233.30-2.43Q231.71-4.68 230.96-7.65Q230.20-10.61 230.20-13.92Q230.20-18.78 231.34-22.62Q232.48-26.47 233.98-29.15Q235.49-31.84 236.97-33.26Q238.45-34.68 239.18-34.68Q240.04-34.68 240.75-33.92Q241.46-33.17 241.78-32.16Q242.11-31.15 241.96-30.12Q241.80-29.09 240.95-28.53Q240.43-27.71 239.72-26.64Q239.01-25.57 238.39-23.96Q237.77-22.34 237.34-20.02Q236.91-17.70 236.91-14.44Q236.91-11.64 237.40-9.58Q237.89-7.52 238.78-6.12Q239.66-4.73 240.79-4.04Q241.93-3.35 243.22-3.35Q245.11-3.35 246.34-4.28Q247.56-5.20 248.42-6.70Q245.33-9.37 243.72-13.47Q242.11-17.57 242.11-22.34Q242.11-24.41 242.56-26.28Q243.01-28.14 243.89-29.56Q244.77-30.98 246.10-31.82Q247.43-32.66 249.20-32.66Q250.74-32.66 252.12-31.54Q253.49-30.42 254.52-28.45Q255.55-26.47 256.13-23.76Q256.71-21.05 256.71-17.87Q256.71-15.43 256.41-13.02Q256.11-10.61 255.47-8.38Q255.94-8.21 256.35-8.19Q256.76-8.16 257.23-8.16Q258.65-8.16 259.74-8.68Q260.84-9.20 261.61-10.05Q262.39-10.91 262.86-12.07Q263.33-13.23 263.55-14.52M246.75-22.69Q246.75-19.72 247.67-17.06Q248.59-14.39 250.10-12.42Q250.36-14.52 250.36-16.46Q250.36-18.69 250.29-20.60Q250.23-22.52 249.99-23.89Q249.75-25.27 249.35-26.06Q248.94-26.86 248.25-26.86Q246.75-26.86 246.75-22.69M287.78 2.45Q286.28 2.45 285.05 1.98Q283.83 1.50 282.90 0.67Q281.98-0.17 281.38-1.31Q280.78-2.45 280.56-3.78Q278.97-0.99 276.82 0.77Q274.68 2.54 271.75 2.54Q269.56 2.54 267.82 1.63Q266.08 0.73 264.88-0.92Q263.68-2.58 263.05-4.92Q262.43-7.26 262.43-10.14Q262.43-13.62 262.92-17.14Q263.42-20.67 264.02-23.50Q264.71-26.81 265.61-29.91Q265.82-30.46 265.93-31.04Q266.04-31.62 266.43-32.10Q266.81-32.57 267.65-32.87Q268.49-33.17 270.25-33.17Q271.88-33.17 272.36-32.59Q272.83-32.01 272.72-31.24Q272.61-30.46 272.21-29.65Q271.80-28.83 271.67-28.32Q271.07-25.87 270.59-23.85Q270.12-21.83 269.80-19.79Q269.48-17.75 269.30-15.53Q269.13-13.32 269.13-10.57Q269.13-6.96 270.19-5.11Q271.24-3.27 273.17-3.27Q274.50-3.27 275.64-4.25Q276.78-5.24 277.71-6.90Q278.63-8.55 279.32-10.68Q280-12.80 280.39-15.12L280.39-29.30Q280.39-30.25 280.24-30.81Q280.09-31.37 279.94-31.69Q279.79-32.01 279.64-32.21Q279.49-32.40 279.49-32.66Q279.49-32.87 279.75-33.04Q280-33.21 280.43-33.34Q280.86-33.47 281.36-33.54Q281.85-33.60 282.32-33.60Q284.52-33.60 285.78-32.46Q287.05-31.32 287.05-29.73L287.05-7.39Q287.05-7.09 287.09-6.42Q287.14-5.76 287.35-5.07Q287.57-4.38 288.04-3.87Q288.51-3.35 289.37-3.35Q290.70-3.35 291.67-4.30Q292.64-5.24 293.35-6.66Q294.05-8.08 294.51-9.73Q294.96-11.39 295.26-12.85Q295.52-14.22 296.12-14.85Q296.72-15.47 297.36-15.47Q297.88-15.47 298.44-15.15Q299-14.82 299.45-14.31Q299.90-13.79 300.18-13.15Q300.46-12.50 300.46-11.86Q300.46-11.77 300.46-11.64Q300.46-11.52 300.37-11.26Q299.77-9.07 298.80-6.66Q297.84-4.25 296.33-2.23Q294.83-0.21 292.72 1.12Q290.62 2.45 287.78 2.45M314.77 2.45Q313.22 2.45 311.61 1.98Q310 1.50 308.69 0.34Q307.38-0.82 306.54-2.73Q305.70-4.64 305.70-7.56Q305.70-11.82 306.84-16.56Q307.98-21.31 310.13-27.03L303.42-27.03L302.43-27.03Q302.39-25.74 302.28-23.76Q302.18-21.79 301.92-19.55Q301.66-17.32 301.25-15.04Q300.84-12.76 300.24-10.83Q299.81-9.45 298.89-9.24Q297.96-9.02 297.06-9.56Q296.16-10.10 295.60-11.13Q295.04-12.16 295.34-13.28Q295.69-14.61 295.95-16.52Q296.20-18.43 296.35-20.56Q296.50-22.69 296.59-24.81Q296.68-26.94 296.72-28.62Q295.09-29.52 294.01-30.92Q292.94-32.31 292.94-34.25Q292.94-35.15 293.30-35.90Q293.67-36.65 294.27-37.19Q294.87-37.73 295.69-38.01Q296.50-38.29 297.36-38.29Q298.14-38.29 298.97-38.07Q299.81-37.86 300.56-37.30Q301.32-36.74 301.92-35.84Q302.52-34.93 302.91-33.60Q303.98-33.47 304.73-33.41Q305.48-33.34 306-33.30Q306.52-33.26 306.86-33.26Q307.20-33.26 307.55-33.26L312.14-33.26Q312.53-33.26 313.28-32.79Q314.04-32.31 314.77-31.56Q315.50-30.81 315.99-29.95Q316.48-29.09 316.36-28.32Q316.36-28.06 316.05-27.07Q315.75-26.08 315.32-24.58Q314.89-23.07 314.38-21.12Q313.86-19.16 313.43-17.02Q313-14.87 312.70-12.57Q312.40-10.27 312.40-8.08Q312.40-7.18 312.62-6.32Q312.83-5.46 313.26-4.79Q313.69-4.12 314.36-3.74Q315.02-3.35 315.93-3.35Q317.43-3.35 318.50-4.30Q319.58-5.24 320.31-6.66Q321.04-8.08 321.49-9.73Q321.94-11.39 322.24-12.85Q322.50-14.22 323.10-14.85Q323.70-15.47 324.35-15.47Q324.86-15.47 325.42-15.15Q325.98-14.82 326.43-14.31Q326.88-13.79 327.16-13.15Q327.44-12.50 327.44-11.86Q327.44-11.64 327.40-11.52Q327.36-11.39 327.36-11.26Q326.75-9.07 325.79-6.66Q324.82-4.25 323.32-2.23Q321.81-0.21 319.71 1.12Q317.60 2.45 314.77 2.45M322.63-1.42L322.63-29.30Q322.63-30.55 322.44-31.11Q322.24-31.67 322.24-32.14Q322.24-32.79 322.93-33.19Q323.62-33.60 324.56-33.60Q326.75-33.60 328.02-32.46Q329.29-31.32 329.29-29.73L329.29-25.78Q330.19-27.63 331.24-29.22Q332.30-30.81 333.52-31.99Q334.75-33.17 336.14-33.84Q337.54-34.50 339.17-34.50Q341.36-34.50 342.78-33.69Q344.20-32.87 345.02-31.58Q345.83-30.29 346.15-28.70Q346.48-27.11 346.48-25.61L346.48-7.39Q346.48-7.09 346.52-6.42Q346.56-5.76 346.78-5.07Q346.99-4.38 347.44-3.87Q347.89-3.35 348.75-3.35Q350.09-3.35 351.05-4.30Q352.02-5.24 352.73-6.66Q353.44-8.08 353.89-9.73Q354.34-11.39 354.64-12.85Q354.90-14.22 355.50-14.85Q356.10-15.47 356.75-15.47Q357.26-15.47 357.82-15.15Q358.38-14.82 358.83-14.31Q359.28-13.79 359.56-13.15Q359.84-12.50 359.84-11.86Q359.84-11.77 359.84-11.64Q359.84-11.52 359.75-11.26Q359.20-9.07 358.23-6.66Q357.26-4.25 355.74-2.23Q354.21-0.21 352.11 1.12Q350 2.45 347.16 2.45Q345.40 2.45 344.05 1.78Q342.70 1.12 341.73 0Q340.76-1.12 340.27-2.62Q339.77-4.12 339.77-5.80L339.77-23.68Q339.77-24.71 339.73-25.61Q339.69-26.51 339.49-27.20Q339.30-27.89 338.94-28.29Q338.57-28.70 337.93-28.70Q336.98-28.70 335.61-27.41Q334.23-26.12 332.90-24.06Q331.57-22 330.56-19.40Q329.55-16.80 329.29-14.18L329.29-1.33Q329.29-0.69 329.27-0.02Q329.25 0.64 329.01 1.18Q328.77 1.72 328.28 2.08Q327.79 2.45 326.84 2.45Q326.20 2.45 325.44 2.30Q324.69 2.15 324.07 1.74Q323.45 1.33 323.04 0.58Q322.63-0.17 322.63-1.42M374.62-25.61Q374.62-23.16 373.78-20.58Q372.95-18 371.29-15.71Q369.64-13.41 367.21-11.58Q364.78-9.75 361.60-8.81Q362.03-7.69 362.74-6.68Q363.45-5.67 364.44-4.94Q365.43-4.21 366.74-3.78Q368.05-3.35 369.77-3.35Q372.34-3.35 374.19-4.32Q376.04-5.29 377.31-6.87Q378.57-8.46 379.35-10.44Q380.12-12.42 380.51-14.44Q380.81-15.90 381.73-16.39Q382.66-16.89 383.62-16.63Q384.59-16.37 385.30-15.53Q386.01-14.70 385.88-13.54Q385.71-12.20 385.30-10.48Q384.89-8.77 384.07-7Q383.26-5.24 381.99-3.54Q380.72-1.85 378.88-0.52Q377.03 0.82 374.54 1.63Q372.04 2.45 368.82 2.45Q365.81 2.45 363 1.27Q360.18 0.09 358.01-2.13Q355.84-4.34 354.53-7.58Q353.22-10.83 353.22-14.95Q353.22-19.12 354.38-22.71Q355.54-26.30 357.43-28.92Q359.32-31.54 361.73-33.02Q364.14-34.50 366.67-34.50Q368.52-34.50 370-33.86Q371.48-33.21 372.52-32.03Q373.55-30.85 374.08-29.22Q374.62-27.59 374.62-25.61M360.44-15.21Q360.44-14.82 360.48-14.44Q360.53-14.05 360.53-13.62Q362.16-14.39 363.49-15.60Q364.82-16.80 365.77-18.35Q366.71-19.89 367.23-21.72Q367.75-23.55 367.75-25.52Q367.75-26.98 367.25-27.80Q366.76-28.62 365.90-28.62Q364.82-28.62 363.99-27.89Q363.15-27.16 362.53-25.97Q361.90-24.79 361.49-23.31Q361.09-21.83 360.83-20.32Q360.57-18.82 360.48-17.47Q360.40-16.11 360.44-15.21M411.75-12.85Q412.13-14.22 412.65-14.85Q413.16-15.47 413.85-15.47Q414.37-15.47 414.93-15.15Q415.48-14.82 415.94-14.31Q416.39-13.79 416.67-13.15Q416.95-12.50 416.95-11.86Q416.95-11.77 416.95-11.52Q416.95-11.26 416.86-11Q415.74-7.18 414.26-4.23Q412.78-1.29 411.08 1.03Q409.38 3.35 407.58 5.18Q405.77 7 403.97 8.55L403.97 23.76Q403.97 27.24 403.17 29.63Q402.38 32.01 401.09 33.49Q399.80 34.98 398.17 35.62Q396.54 36.27 394.86 36.27Q393.01 36.27 391.46 35.47Q389.92 34.68 388.78 33.30Q387.64 31.93 387.02 30.08Q386.39 28.23 386.39 26.13Q386.39 22.77 387.28 20.20Q388.16 17.62 389.66 15.47Q391.16 13.32 393.14 11.45Q395.12 9.58 397.31 7.65L397.31-3.52Q395.72-0.86 393.61 0.84Q391.51 2.54 388.67 2.54Q386.48 2.54 384.74 1.63Q383 0.73 381.80-0.92Q380.59-2.58 379.97-4.92Q379.35-7.26 379.35-10.14Q379.35-13.62 379.84-17.14Q380.34-20.67 380.94-23.50Q381.63-26.81 382.53-29.91Q382.74-30.46 382.85-31.04Q382.96-31.62 383.34-32.10Q383.73-32.57 384.57-32.87Q385.41-33.17 387.17-33.17Q388.80-33.17 389.27-32.59Q389.75-32.01 389.64-31.24Q389.53-30.46 389.12-29.65Q388.71-28.83 388.59-28.32Q387.98-25.87 387.51-23.85Q387.04-21.83 386.72-19.79Q386.39-17.75 386.22-15.53Q386.05-13.32 386.05-10.57Q386.05-6.96 387.10-5.11Q388.16-3.27 390.09-3.27Q391.42-3.27 392.56-4.25Q393.70-5.24 394.62-6.90Q395.55-8.55 396.23-10.68Q396.92-12.80 397.31-15.12L397.31-29.30Q397.31-30.55 397.14-31.11Q396.96-31.67 396.96-32.14Q396.96-32.79 397.63-33.19Q398.30-33.60 399.24-33.60Q401.43-33.60 402.70-32.46Q403.97-31.32 403.97-29.73L403.97 1.16Q406.38-1.50 408.39-4.90Q410.41-8.29 411.75-12.85M394.86 30.72Q395.89 30.72 396.41 29.86Q396.92 29 397.12 27.87Q397.31 26.73 397.31 25.57Q397.31 24.41 397.31 23.76L397.31 14.35Q395.16 16.50 393.85 19.21Q392.54 21.91 392.54 25.87Q392.54 27.93 393.16 29.33Q393.79 30.72 394.86 30.72"/>
  </g>
</svg>
